<svg width="112" height="44" viewBox="0 0 112 44" fill="none" xmlns="http://www.w3.org/2000/svg">
<path d="M47.282 31.7955C47.3949 31.9361 47.4508 32.1115 47.4508 32.3211C47.4508 32.6183 47.3414 32.8493 47.1226 33.0138C46.9037 33.1782 46.5868 33.2608 46.1714 33.2608H44.7562C44.6522 33.2608 44.5685 33.1763 44.5685 33.0719V30.0574C44.5685 29.953 44.6527 29.8691 44.7562 29.8691H46.0798C46.4595 29.8691 46.7556 29.9451 46.968 30.0966C47.1804 30.2486 47.2869 30.4633 47.2869 30.7411C47.2869 30.919 47.2444 31.072 47.1592 31.2012C47.0741 31.3304 46.9507 31.4287 46.7898 31.4968C47.0052 31.5554 47.1696 31.6548 47.282 31.7955ZM45.1864 31.3179H46.0268C46.2298 31.3179 46.3842 31.2777 46.4903 31.1967C46.5967 31.1157 46.6497 30.9965 46.6497 30.838C46.6497 30.6799 46.5967 30.5593 46.4903 30.4773C46.3838 30.3947 46.2293 30.3535 46.0268 30.3535H45.1864V31.3179ZM46.8185 32.2729C46.8185 31.9435 46.5967 31.7786 46.152 31.7786H45.1864V32.7768H46.152C46.5967 32.7768 46.8185 32.6088 46.8185 32.2729Z" fill="#A8A8A8"/>
<path d="M50.6595 31.2912C50.4427 31.1098 50.1307 31.0179 49.7252 31.0179H48.7883V30.0272C48.7883 29.9397 48.718 29.8701 48.6319 29.8701H48.3264C48.2402 29.8701 48.1699 29.9397 48.1699 30.0272V33.1038C48.1699 33.1912 48.2402 33.2608 48.3264 33.2608H49.6237C50.0545 33.2608 50.3897 33.1624 50.6279 32.9631C50.866 32.7639 50.9849 32.4777 50.9849 32.1025C50.9849 31.7443 50.877 31.4735 50.6595 31.2912ZM50.1594 32.6069C50.0282 32.7197 49.8396 32.7764 49.5949 32.7764H48.7883V31.4978H49.5949C50.103 31.4978 50.3575 31.7026 50.3575 32.113C50.3575 32.3296 50.2917 32.4941 50.1594 32.6069Z" fill="#A8A8A8"/>
<path d="M52.0913 30.0271V33.1037C52.0913 33.1912 52.021 33.2608 51.9347 33.2608H51.6293C51.5431 33.2608 51.4728 33.1912 51.4728 33.1037V30.0271C51.4728 29.9396 51.5431 29.8701 51.6293 29.8701H51.9347C52.021 29.8701 52.0913 29.9396 52.0913 30.0271Z" fill="#A8A8A8"/>
<path d="M41.1079 31.7273V32.034C41.1079 32.1204 41.0385 32.191 40.9514 32.191H28.8576C28.7705 32.191 28.7012 32.1204 28.7012 32.034V31.7273C28.7012 31.641 28.7705 31.5704 28.8576 31.5704H40.9514C41.0385 31.5704 41.1079 31.641 41.1079 31.7273Z" fill="#A8A8A8"/>
<path d="M102.202 31.7273V32.0339C102.202 32.1203 102.133 32.1909 102.046 32.1909H89.9519C89.8649 32.1909 89.7949 32.1203 89.7949 32.0339V31.7273C89.7949 31.6409 89.8649 31.5703 89.9519 31.5703H102.046C102.133 31.5703 102.202 31.6409 102.202 31.7273Z" fill="#A8A8A8"/>
<path d="M55.7608 31.7955C55.8738 31.9361 55.9297 32.1115 55.9297 32.3211C55.9297 32.6183 55.8203 32.8493 55.6014 33.0137C55.3826 33.1782 55.0656 33.2607 54.6502 33.2607H53.2549C53.14 33.2607 53.0469 33.1673 53.0469 33.052V30.0783C53.0469 29.963 53.14 29.8696 53.2549 29.8696H54.5581C54.9379 29.8696 55.234 29.9456 55.4464 30.0972C55.6588 30.2492 55.7653 30.4638 55.7653 30.7416C55.7653 30.9194 55.7227 31.0725 55.6376 31.2017C55.5524 31.3309 55.4291 31.4293 55.2682 31.4974C55.4841 31.5555 55.648 31.6549 55.7608 31.7955ZM53.6654 31.3179H54.5056C54.7086 31.3179 54.8631 31.2777 54.9691 31.1967C55.0756 31.1157 55.1285 30.9965 55.1285 30.838C55.1285 30.6799 55.0756 30.5593 54.9691 30.4773C54.8626 30.3948 54.7082 30.3535 54.5056 30.3535H53.6654V31.3179ZM55.2974 32.2729C55.2974 31.9436 55.0756 31.7786 54.6309 31.7786H53.6654V32.7768H54.6309C55.075 32.7768 55.2974 32.6089 55.2974 32.2729Z" fill="#A8A8A8"/>
<path d="M57.2768 33.0843C57 32.9343 56.7826 32.7256 56.6252 32.4593C56.4672 32.1929 56.3885 31.8948 56.3885 31.5654C56.3885 31.236 56.4672 30.9378 56.6252 30.6715C56.7826 30.4052 57 30.1965 57.2768 30.0464C57.5536 29.8964 57.8641 29.8213 58.2087 29.8213C58.5534 29.8213 58.8638 29.8964 59.1406 30.0464C59.4174 30.1965 59.6347 30.4042 59.7927 30.669C59.9501 30.9339 60.0294 31.2325 60.0294 31.5654C60.0294 31.8983 59.9507 32.197 59.7927 32.4618C59.6347 32.7266 59.4174 32.9343 59.1406 33.0843C58.8638 33.2344 58.5534 33.3094 58.2087 33.3094C57.8645 33.3094 57.5536 33.2344 57.2768 33.0843ZM58.8173 32.6044C58.9975 32.5025 59.1391 32.3604 59.2421 32.178C59.3451 31.9956 59.3966 31.7914 59.3966 31.5649C59.3966 31.3388 59.3451 31.1346 59.2421 30.9518C59.1391 30.7694 58.9975 30.6273 58.8173 30.5254C58.637 30.4236 58.434 30.3728 58.2087 30.3728C57.9834 30.3728 57.7804 30.4236 57.6002 30.5254C57.4199 30.6273 57.2783 30.7694 57.1753 30.9518C57.0723 31.1341 57.0208 31.3388 57.0208 31.5649C57.0208 31.791 57.0723 31.9952 57.1753 32.178C57.2783 32.3604 57.4199 32.5025 57.6002 32.6044C57.7804 32.7062 57.9834 32.7569 58.2087 32.7569C58.4345 32.7574 58.637 32.7062 58.8173 32.6044Z" fill="#A8A8A8"/>
<path d="M62.8804 31.8053C62.9948 31.949 63.0517 32.1179 63.0517 32.3117C63.0517 32.5154 62.9858 32.6923 62.8537 32.8423C62.7215 32.9923 62.5452 33.1082 62.3248 33.1886C62.1045 33.2691 61.8639 33.3099 61.603 33.3099C61.3776 33.3099 61.1513 33.2786 60.9245 33.2155C60.7345 33.1628 60.5562 33.0878 60.3898 32.9909C60.3344 32.9586 60.3136 32.8876 60.3393 32.8289L60.4378 32.6053C60.468 32.5367 60.5502 32.5084 60.6156 32.5452C60.7315 32.6103 60.8557 32.6624 60.9895 32.7022C61.1697 32.7554 61.3484 32.7822 61.5252 32.7822C61.7792 32.7822 61.9911 32.732 62.1599 32.6322C62.3288 32.5323 62.4135 32.3947 62.4135 32.2203C62.4135 32.0717 62.3521 31.9584 62.2298 31.8809C62.1074 31.8034 61.9386 31.7647 61.7227 31.7647H61.0845C61.0023 31.7647 60.9359 31.698 60.9359 31.6156V31.4198C60.9359 31.3373 61.0023 31.2708 61.0845 31.2708H61.6747C61.8223 31.2708 61.9445 31.2464 62.0416 31.1982C62.2268 31.1063 62.3204 30.8777 62.2466 30.6844C62.2139 30.5985 62.151 30.5274 62.0589 30.4713C61.9158 30.3843 61.7331 30.3406 61.5108 30.3406C61.3593 30.3406 61.2033 30.3625 61.0424 30.4062C60.932 30.436 60.826 30.4753 60.725 30.5245C60.6498 30.5608 60.5602 30.5239 60.5299 30.4459L60.4393 30.2129C60.4111 30.1403 60.4452 30.0593 60.5156 30.0266C60.6522 29.9634 60.7948 29.9138 60.9439 29.878C61.1385 29.8314 61.3326 29.8075 61.5256 29.8075C61.7767 29.8075 62.0074 29.8463 62.2184 29.9238C62.4293 30.0012 62.5971 30.1121 62.7229 30.2556C62.8482 30.3992 62.9111 30.5682 62.9111 30.7619C62.9111 30.9299 62.8661 31.077 62.7759 31.2027C62.6902 31.3224 62.5739 31.4158 62.4273 31.4829C62.4189 31.4869 62.4194 31.4983 62.4283 31.5013C62.6204 31.5659 62.771 31.6672 62.8804 31.8053Z" fill="#A8A8A8"/>
<path d="M68.1978 33.1082L68.1933 31.0134L67.1273 32.7991C67.0995 32.8454 67.05 32.8737 66.996 32.8737H66.8886C66.8351 32.8737 66.7856 32.8458 66.7579 32.8001L65.6918 31.0422V33.1077C65.6918 33.1926 65.6235 33.2612 65.5388 33.2612H65.2506C65.166 33.2612 65.0977 33.1926 65.0977 33.1077V30.0231C65.0977 29.9381 65.166 29.8696 65.2506 29.8696H65.5274C65.5814 29.8696 65.6309 29.8979 65.6587 29.9442L66.9514 32.1129L68.23 29.9451C68.2577 29.8984 68.3077 29.8696 68.3617 29.8696H68.6335C68.7177 29.8696 68.786 29.9381 68.7865 30.0226L68.7955 33.1072C68.7955 33.1922 68.7271 33.2612 68.6424 33.2612H68.3498C68.2666 33.2612 68.1983 33.1926 68.1978 33.1082Z" fill="#A8A8A8"/>
<path d="M72.43 29.8696C72.5275 29.8696 72.59 29.974 72.5434 30.0604L71.1778 32.6073C71.049 32.8499 70.895 33.0312 70.7167 33.1524C70.538 33.2736 70.3439 33.3342 70.1349 33.3342C70.0091 33.3342 69.8844 33.3139 69.7601 33.2742C69.6918 33.2518 69.6527 33.1792 69.6739 33.1106L69.7542 32.8533C69.7745 32.7882 69.8428 32.7509 69.9091 32.7668C69.9899 32.7867 70.0606 32.7966 70.1201 32.7966C70.3231 32.7966 70.4905 32.6918 70.6222 32.4816L70.6752 32.3992L69.4293 30.0604C69.3833 29.974 69.4457 29.8701 69.5432 29.8701H69.9195C69.9681 29.8701 70.0126 29.8975 70.0349 29.9412L70.9985 31.8616L71.9908 29.9402C72.0131 29.8975 72.0571 29.8701 72.1052 29.8701L72.43 29.8696Z" fill="#A8A8A8"/>
<path d="M73.6763 33.0843C73.401 32.9342 73.1857 32.7265 73.0291 32.4617C72.8732 32.1969 72.7949 31.8983 72.7949 31.5654C72.7949 31.233 72.8737 30.9339 73.0316 30.669C73.1891 30.4042 73.406 30.1965 73.6813 30.0464C73.9566 29.8964 74.2646 29.8213 74.6057 29.8213C74.8826 29.8213 75.1351 29.8695 75.3638 29.9669C75.5302 30.0374 75.6778 30.1309 75.8065 30.2476C75.8853 30.3192 75.8828 30.4449 75.8055 30.5185L75.6649 30.6511C75.5961 30.7162 75.4896 30.7172 75.4173 30.6561C75.1965 30.4683 74.9355 30.3743 74.6344 30.3743C74.4027 30.3743 74.1953 30.425 74.0116 30.5269C73.8278 30.6287 73.6848 30.7699 73.5818 30.9507C73.4787 31.1316 73.4272 31.3368 73.4272 31.5658C73.4272 31.7955 73.4787 32.0001 73.5818 32.1815C73.6848 32.3629 73.8278 32.5035 74.0116 32.6053C74.1953 32.7072 74.4027 32.7579 74.6344 32.7579C74.935 32.7579 75.1954 32.663 75.4163 32.4737C75.4891 32.411 75.5961 32.412 75.6654 32.4786L75.8065 32.6138C75.8833 32.6873 75.8853 32.8125 75.8065 32.8836C75.6772 33.0009 75.5287 33.0947 75.3609 33.1653C75.1306 33.2622 74.8771 33.3108 74.6003 33.3108C74.2597 33.3094 73.9516 33.2343 73.6763 33.0843Z" fill="#A8A8A8"/>
<path d="M77.0874 33.0843C76.8107 32.9342 76.5933 32.7256 76.4359 32.4592C76.2779 32.1929 76.1992 31.8948 76.1992 31.5654C76.1992 31.2359 76.2779 30.9378 76.4359 30.6715C76.5933 30.4051 76.8107 30.1965 77.0874 30.0464C77.3643 29.8964 77.6747 29.8213 78.0194 29.8213C78.364 29.8213 78.6745 29.8964 78.9513 30.0464C79.228 30.1965 79.4455 30.4042 79.6034 30.669C79.7609 30.9339 79.8401 31.2324 79.8401 31.5654C79.8401 31.8983 79.7613 32.1969 79.6034 32.4617C79.4455 32.7265 79.228 32.9342 78.9513 33.0843C78.6745 33.2343 78.364 33.3094 78.0194 33.3094C77.6747 33.3094 77.3643 33.2343 77.0874 33.0843ZM78.6279 32.6043C78.8081 32.5025 78.9498 32.3604 79.0527 32.178C79.1557 31.9956 79.2073 31.7914 79.2073 31.5649C79.2073 31.3388 79.1557 31.1346 79.0527 30.9517C78.9498 30.7694 78.8081 30.6273 78.6279 30.5254C78.4477 30.4236 78.2447 30.3728 78.0194 30.3728C77.794 30.3728 77.591 30.4236 77.4108 30.5254C77.2306 30.6273 77.089 30.7694 76.986 30.9517C76.883 31.1341 76.8315 31.3388 76.8315 31.5649C76.8315 31.791 76.883 31.9952 76.986 32.178C77.089 32.3604 77.2306 32.5025 77.4108 32.6043C77.591 32.7062 77.794 32.7569 78.0194 32.7569C78.2447 32.7573 78.4477 32.7062 78.6279 32.6043Z" fill="#A8A8A8"/>
<path d="M82.6911 30.0147C82.9085 30.1116 83.0748 30.2508 83.1907 30.4316C83.3066 30.6125 83.3646 30.8271 83.3646 31.0761C83.3646 31.3215 83.3066 31.5357 83.1907 31.718C83.0748 31.9003 82.908 32.0405 82.6911 32.1374C82.4737 32.2343 82.2187 32.2829 81.9256 32.2829H81.1625V33.0904C81.1625 33.1848 81.0863 33.2613 80.9922 33.2613H80.7055C80.6114 33.2613 80.5352 33.1848 80.5352 33.0904V30.0411C80.5352 29.9466 80.6114 29.8701 80.7055 29.8701H81.9256C82.2182 29.8697 82.4737 29.9178 82.6911 30.0147ZM82.5193 31.5749C82.6609 31.4586 82.7317 31.2922 82.7317 31.0761C82.7317 30.8599 82.6609 30.6935 82.5193 30.5772C82.3776 30.4609 82.1697 30.4028 81.8964 30.4028H81.1625V31.7498H81.8964C82.1702 31.7493 82.3776 31.6912 82.5193 31.5749Z" fill="#A8A8A8"/>
<path d="M86.0301 32.4761H84.3401L84.0486 33.1628C84.0226 33.2224 83.9643 33.2611 83.9006 33.2611H83.6085C83.4916 33.2611 83.414 33.1405 83.4614 33.0331L84.8371 29.9644C84.864 29.9063 84.9214 29.869 84.9842 29.869H85.3941C85.4578 29.869 85.5152 29.9063 85.5413 29.9639L86.9218 33.0326C86.9693 33.1394 86.8922 33.2607 86.7747 33.2607H86.4733C86.4087 33.2607 86.3513 33.2224 86.3253 33.1633L86.0301 32.4761ZM85.822 31.9817L85.1851 30.499L84.5527 31.9817H85.822Z" fill="#A8A8A8"/>
<path d="M92.703 24.9273L89.3185 17.4036C89.2172 17.1781 88.992 17.032 88.7453 17.032H87.7174C87.4707 17.032 87.2455 17.1781 87.1442 17.4036L83.7709 24.9273C83.6827 25.124 83.6991 25.3486 83.8162 25.53C83.9319 25.7103 84.1293 25.8176 84.3436 25.8176H85.1034C85.3573 25.8176 85.5833 25.6671 85.6829 25.4341L86.3324 23.9057H90.1097L90.769 25.4375C90.8686 25.6686 91.0956 25.8182 91.3467 25.8182H92.1307C92.346 25.8182 92.5425 25.7108 92.6591 25.5295C92.7748 25.3486 92.7918 25.123 92.703 24.9273ZM87.0697 22.1816L88.2206 19.4856L89.3786 22.1816H87.0697Z" fill="#1D1D1B"/>
<path d="M36.7381 24.3081C36.7381 24.4815 36.6642 24.651 36.5375 24.7702C36.1879 25.1011 35.7769 25.3674 35.3155 25.5622C34.7247 25.8101 34.0676 25.9359 33.3616 25.9359C32.4896 25.9359 31.6909 25.7411 30.9843 25.3551C30.6292 25.1613 30.3109 24.9292 30.0311 24.6594C29.7513 24.3896 29.5097 24.083 29.3082 23.7417C28.9061 23.0595 28.7012 22.2794 28.7012 21.4248C28.7012 20.5702 28.9081 19.79 29.3151 19.1069C29.7216 18.4232 30.2871 17.8816 30.9972 17.4945C31.7028 17.1095 32.5025 16.9137 33.3744 16.9137C34.081 16.9137 34.7356 17.0399 35.3228 17.2889C35.7804 17.4826 36.1889 17.7489 36.5375 18.0784C36.6652 18.1991 36.7381 18.368 36.7381 18.543C36.7381 18.7178 36.6677 18.8803 36.5395 19.0006L36.081 19.4344C35.8427 19.6589 35.4794 19.6654 35.2357 19.4497C34.7296 18.9986 34.1444 18.7795 33.4447 18.7795C32.9268 18.7795 32.4584 18.8942 32.0518 19.1188C31.6483 19.3424 31.3299 19.6574 31.1041 20.0544C30.8774 20.4524 30.7615 20.9135 30.7615 21.4248C30.7615 21.9361 30.8774 22.3966 31.1041 22.7961C31.3299 23.1921 31.6488 23.5071 32.0518 23.7307C32.4584 23.9563 32.9268 24.0702 33.4447 24.0702C34.1424 24.0702 34.7277 23.849 35.2332 23.3944C35.4734 23.1778 35.8472 23.1842 36.083 23.4098L36.5434 23.85C36.6697 23.9708 36.7391 24.1332 36.7381 24.3081Z" fill="#27AE60"/>
<path d="M45.198 17.6635V25.1871C45.198 25.5343 44.9157 25.8176 44.5686 25.8176H43.8026C43.4565 25.8176 43.1742 25.5343 43.1742 25.1871V18.8505H39.4194V25.1875C39.4194 25.5349 39.1372 25.8181 38.7901 25.8181H38.0241C37.6779 25.8181 37.3947 25.5349 37.3947 25.1875V17.6635C37.3947 17.3151 37.6779 17.0319 38.0241 17.0319H44.5686C44.9157 17.0325 45.198 17.3151 45.198 17.6635Z" fill="#27AE60"/>
<path d="M52.9779 24.643V25.1871C52.9779 25.5343 52.6956 25.8176 52.3485 25.8176H46.9107C46.5636 25.8176 46.2813 25.5343 46.2813 25.1871V17.6635C46.2813 17.3151 46.5636 17.0319 46.9107 17.0319H52.1841C52.5312 17.0319 52.8134 17.3151 52.8134 17.6635V18.2075C52.8134 18.5558 52.5312 18.8391 52.1841 18.8391H48.3288V20.4683H51.6781C52.0242 20.4683 52.3074 20.7515 52.3074 21.0998V21.6205C52.3074 21.9688 52.0242 22.252 51.6781 22.252H48.3288V24.0115H52.348C52.6956 24.0115 52.9779 24.2947 52.9779 24.643Z" fill="#27AE60"/>
<path d="M62.5273 24.6311V27.0057C62.5273 27.354 62.245 27.6372 61.8979 27.6372H61.2255C60.8794 27.6372 60.5962 27.354 60.5962 27.0057V25.8176H54.2348C53.8887 25.8176 53.6055 25.5344 53.6055 25.1872V17.6635C53.6055 17.3152 53.8887 17.032 54.2348 17.032H55.0009C55.3479 17.032 55.6302 17.3152 55.6302 17.6635V23.9996H59.2671V17.6635C59.2671 17.3152 59.5493 17.032 59.8965 17.032H60.6734C61.0205 17.032 61.3028 17.3152 61.3028 17.6635V23.9996H61.8979C62.245 23.9996 62.5273 24.2828 62.5273 24.6311Z" fill="#27AE60"/>
<path d="M76.9003 17.6635V18.2185C76.9003 18.5667 76.6181 18.8499 76.271 18.8499H74.1705V25.1871C74.1705 25.5343 73.8883 25.8176 73.5412 25.8176H72.7633C72.4172 25.8176 72.1349 25.5343 72.1349 25.1871V18.8505H70.0454C69.6982 18.8505 69.416 18.5673 69.416 18.2189V17.6639C69.416 17.3157 69.6982 17.0325 70.0454 17.0325H76.271C76.6181 17.0325 76.9003 17.3151 76.9003 17.6635Z" fill="#1D1D1B"/>
<path d="M68.4688 20.4037H64.4213C64.0757 20.4037 63.793 20.6874 63.793 21.0342V21.8148C63.793 22.1631 64.0752 22.4464 64.4213 22.4464H68.4688C68.7416 22.4464 68.9624 22.2247 68.9624 21.951V20.8991C68.9624 20.6253 68.7416 20.4037 68.4688 20.4037Z" fill="#1D1D1B"/>
<path d="M84.5152 18.5206C84.3609 18.2796 84.1725 18.065 83.9501 17.8791C83.7272 17.6933 83.4716 17.5363 83.1849 17.4081C82.6239 17.1582 81.9614 17.032 81.2142 17.032H78.1958C77.8486 17.032 77.5664 17.3152 77.5664 17.6635V25.1872C77.5664 25.5344 77.8486 25.8176 78.1958 25.8176H78.985C79.3321 25.8176 79.6144 25.5344 79.6144 25.1872V23.4322H81.2147C81.9619 23.4322 82.6245 23.3059 83.1855 23.056C83.7598 22.7997 84.2084 22.4235 84.517 21.9366C84.8247 21.4512 84.9808 20.8783 84.9808 20.2323C84.9808 19.578 84.8247 19.0031 84.5152 18.5206ZM82.921 20.2328C82.921 20.682 82.7834 21.0134 82.4991 21.2479C82.2026 21.4899 81.7465 21.6141 81.1444 21.6141H79.6149V18.8505H81.1444C81.746 18.8505 82.2026 18.9743 82.4991 19.2177C82.7829 19.4507 82.921 19.7827 82.921 20.2328Z" fill="#1D1D1B"/>
<path d="M101.118 17.6635V25.1872C101.118 25.5344 100.836 25.8176 100.489 25.8176H99.6993C99.3522 25.8176 99.0705 25.5344 99.0705 25.1872V22.275H95.3272V25.1872C95.3272 25.5344 95.0455 25.8176 94.6984 25.8176H93.909C93.5619 25.8176 93.2793 25.5344 93.2793 25.1872V17.6635C93.2793 17.3152 93.5619 17.032 93.909 17.032H94.6984C95.0455 17.032 95.3272 17.3152 95.3272 17.6635V20.445H99.0705V17.6635C99.0705 17.3152 99.3522 17.032 99.6993 17.032H100.489C100.836 17.0325 101.118 17.3152 101.118 17.6635Z" fill="#1D1D1B"/>
<path d="M109.667 24.3081C109.667 24.4815 109.594 24.651 109.467 24.7702C109.117 25.1011 108.706 25.3674 108.245 25.5622C107.654 25.8101 106.997 25.9359 106.291 25.9359C105.419 25.9359 104.621 25.7411 103.914 25.3551C103.204 24.9679 102.64 24.4249 102.237 23.7417C101.835 23.0595 101.631 22.2794 101.631 21.4248C101.631 20.5702 101.837 19.79 102.244 19.1069C102.651 18.4247 103.217 17.8816 103.926 17.4945C104.631 17.1095 105.431 16.9137 106.303 16.9137C107.01 16.9137 107.665 17.0399 108.253 17.2889C108.71 17.4826 109.118 17.7489 109.467 18.0784C109.595 18.1991 109.667 18.368 109.667 18.543C109.667 18.7178 109.597 18.8803 109.469 19.0006L109.011 19.4344C108.771 19.6589 108.409 19.6654 108.165 19.4497C107.659 18.9986 107.073 18.7795 106.374 18.7795C105.856 18.7795 105.388 18.8942 104.981 19.1188C104.577 19.3424 104.259 19.6574 104.034 20.0544C103.807 20.4524 103.691 20.9135 103.691 21.4248C103.691 21.9361 103.807 22.3966 104.034 22.7961C104.259 23.1921 104.578 23.5071 104.981 23.7307C105.388 23.9563 105.856 24.0702 106.374 24.0702C107.072 24.0702 107.657 23.849 108.163 23.3944C108.402 23.1778 108.776 23.1842 109.013 23.4098L109.473 23.85C109.599 23.9708 109.668 24.1332 109.667 24.3081Z" fill="#1D1D1B"/>
<path d="M21.2368 15.4773L19.6118 16.1456C19.2141 16.3091 19.1354 16.8313 19.4592 17.114C22.6555 19.9014 23.8379 24.2401 22.3871 28.2518C20.7947 32.6521 16.5314 35.3044 11.7922 34.8603C7.23032 34.4274 3.39832 30.6711 2.87838 26.1208C2.33072 21.2157 5.05163 16.7543 9.51397 15.2731C9.54169 15.2621 9.58582 15.2562 9.62986 15.2562C9.78487 15.2562 10.0111 15.3119 10.183 15.3506L10.3156 15.3839C10.5811 15.445 10.8519 15.5339 11.1396 15.6279C11.7259 15.8276 12.323 16.0274 12.9757 16.0164C13.8491 15.9995 14.784 15.8609 15.7738 15.6114L15.8238 15.5945C16.0783 15.5334 16.3377 15.4614 16.5977 15.378L16.8855 15.289C17.1948 15.1946 17.4994 15.1001 17.8035 15.0058L18.2733 14.8671L23.366 13.3576L22.8907 12.9358C21.1433 11.382 19.3735 10.2055 17.4771 9.34591C15.8624 8.60258 14.469 8.27514 13.0702 8.31937C10.9192 8.40235 9.22181 9.42341 7.87797 11.4377L7.81707 11.5267C9.83537 10.9771 14.4081 10.2448 19.7281 12.7361C19.7281 12.7361 11.6491 11.2102 7.2863 13.1912C7.08177 13.2856 6.88272 13.391 6.68915 13.5018C6.5841 13.5573 6.48462 13.6185 6.38505 13.6846C2.0059 16.3205 -0.499103 21.3309 0.175307 26.4413C0.927454 32.1786 5.30118 36.6231 11.0633 37.511C11.6828 37.6054 12.2963 37.6552 12.9103 37.6552C15.3435 37.6552 17.7098 36.9336 19.7395 35.6354C21.7632 34.337 23.4497 32.4667 24.5227 30.1752C26.8138 25.2621 25.7096 19.3748 21.8597 15.593C21.6949 15.4345 21.4483 15.3908 21.2368 15.4773Z" fill="#27AE60"/>
<path d="M16.7476 30.0424L16.6981 30.914C16.6981 30.914 16.6922 30.914 16.6857 30.908C16.4272 30.7226 12.3427 27.7802 10.063 25.8514C10.0383 25.833 10.0139 25.8081 9.98918 25.7897C9.40396 25.2889 8.81866 24.7696 8.30717 24.1764C7.0752 22.7668 6.78555 20.8876 7.51241 19.2867C12.6072 20.752 14.5169 25.7033 14.6403 26.0372C13.6054 21.2772 9.69953 18.2666 8.25174 17.2957L8.85534 17.2584C10.2353 17.178 12.2313 17.2461 13.642 18.7669C14.5848 19.793 15.3424 20.9616 15.8291 22.1547C16.8893 24.7323 16.8956 27.4711 16.7476 30.0424Z" fill="#27AE60"/>
</svg>
