<svg width="220" height="85" viewBox="0 0 209 82" fill="none" xmlns="http://www.w3.org/2000/svg">
<path d="M76.7102 59.1282V59.6997C76.7102 59.8607 76.5808 59.9922 76.4183 59.9922H53.8504C53.6879 59.9922 53.5585 59.8607 53.5585 59.6997V59.1282C53.5585 58.9672 53.6879 58.8357 53.8504 58.8357H76.4183C76.5808 58.8357 76.7102 58.9672 76.7102 59.1282Z" fill="#A8A8A8"/>
<path d="M190.714 59.1282V59.6997C190.714 59.8607 190.585 59.9922 190.423 59.9922H167.855C167.693 59.9922 167.562 59.8607 167.562 59.6997V59.1282C167.562 58.9672 167.693 58.8357 167.855 58.8357H190.423C190.585 58.8357 190.714 58.9672 190.714 59.1282Z" fill="#A8A8A8"/>
<text x="124" y="61.5" text-anchor="middle" font-family="Arial, Helvetica, sans-serif" font-weight="700" font-size="6.5" textLength="79" lengthAdjust="spacingAndGlyphs" fill="#A8A8A8">ODVOZ ODPADU</text>
<text y="47.5" font-family="'Arial Black', 'Impact', Arial, sans-serif" font-weight="900" font-size="17">
  <tspan x="53" fill="#27AE60" textLength="65" lengthAdjust="spacingAndGlyphs">SPEC</tspan><tspan x="119" fill="#1D1D1B" textLength="86" lengthAdjust="spacingAndGlyphs">-TRANS</tspan>
</text>
<path d="M39.6304 28.8439L36.5979 30.0895C35.8559 30.394 35.7089 31.3673 36.3132 31.8941C42.2777 37.0889 44.4842 45.1746 41.7769 52.651C38.8053 60.8515 30.8497 65.7944 22.0061 64.9667C13.4933 64.1601 6.34247 57.1597 5.37222 48.6795C4.35026 39.5382 9.42766 31.2237 17.7547 28.4633C17.8064 28.4429 17.8888 28.4319 17.971 28.4319C18.2602 28.4319 18.6824 28.5356 19.0031 28.6078L19.2507 28.6699C19.746 28.7838 20.2513 28.9495 20.7882 29.1245C21.8822 29.4967 22.9966 29.8691 24.2145 29.8486C25.8444 29.8172 27.5889 29.5588 29.4359 29.0939L29.5293 29.0624C30.0042 28.9485 30.4883 28.8143 30.9734 28.6588L31.5104 28.493C32.0877 28.3171 32.656 28.141 33.2235 27.9652L34.1003 27.7068L43.6036 24.8937L42.7166 24.1075C39.4558 21.2119 36.1534 19.0193 32.6145 17.4173C29.6013 16.032 27.0012 15.4217 24.3909 15.5042C20.3771 15.6588 17.2095 17.5617 14.7018 21.3156L14.5882 21.4815C18.3545 20.4573 26.8876 19.0924 36.815 23.7353C36.815 23.7353 21.7389 20.8916 13.5977 24.5834C13.2161 24.7595 12.8446 24.9558 12.4834 25.1623C12.2874 25.2658 12.1017 25.3798 11.9159 25.503C3.74412 30.4153 -0.930403 39.7529 0.328095 49.2768C1.73165 59.9691 9.89334 68.2521 20.6459 69.9068C21.8019 70.0827 22.9467 70.1754 24.0925 70.1754C28.633 70.1754 33.0487 68.8308 36.8363 66.4113C40.6127 63.9916 43.7598 60.5061 45.7621 56.2356C50.0375 47.0794 47.9769 36.1074 40.7928 29.0596C40.4851 28.7642 40.0249 28.6827 39.6304 28.8439Z" fill="#27AE60"/>
<path d="M31.2526 55.9882L31.1602 57.6125C31.1602 57.6125 31.1492 57.6125 31.1371 57.6013C30.6547 57.2559 23.0327 51.7723 18.7786 48.1777C18.7324 48.1434 18.6871 48.097 18.6409 48.0627C17.5488 47.1294 16.4566 46.1616 15.5021 45.0561C13.2032 42.4291 12.6626 38.9271 14.019 35.9434C23.5262 38.6742 27.0899 47.9017 27.3201 48.5239C25.3889 39.653 18.1004 34.0424 15.3987 32.233L16.525 32.1636C19.1002 32.0136 22.8248 32.1405 25.4572 34.9748C27.2167 36.8871 28.6303 39.065 29.5385 41.2883C31.5169 46.0922 31.5288 51.1963 31.2526 55.9882Z" fill="#27AE60"/>
</svg>
