<svg width="220" height="85" viewBox="0 0 209 82" fill="none" xmlns="http://www.w3.org/2000/svg">
<path d="M76.7102 59.1282V59.6997C76.7102 59.8607 76.5808 59.9922 76.4183 59.9922H53.8504C53.6879 59.9922 53.5585 59.8607 53.5585 59.6997V59.1282C53.5585 58.9672 53.6879 58.8357 53.8504 58.8357H76.4183C76.5808 58.8357 76.7102 58.9672 76.7102 59.1282Z" fill="#A8A8A8"/>
<path d="M190.714 59.1282V59.6997C190.714 59.8607 190.585 59.9922 190.423 59.9922H167.855C167.693 59.9922 167.562 59.8607 167.562 59.6997V59.1282C167.562 58.9672 167.693 58.8357 167.855 58.8357H190.423C190.585 58.8357 190.714 58.9672 190.714 59.1282Z" fill="#A8A8A8"/>
<text x="124" y="61.5" text-anchor="middle" font-family="Arial, Helvetica, sans-serif" font-weight="700" font-size="6.5" textLength="79" lengthAdjust="spacingAndGlyphs" fill="#A8A8A8">ВИВІЗ СМІТТЯ</text>
<path d="M172.989 46.4553L166.674 32.434C166.485 32.0136 166.064 31.7413 165.604 31.7413H163.686C163.225 31.7413 162.805 32.0136 162.616 32.434L156.321 46.4553C156.157 46.822 156.187 47.2405 156.406 47.5785C156.622 47.9146 156.99 48.1146 157.39 48.1146H158.808C159.282 48.1146 159.704 47.8341 159.889 47.3998L161.101 44.5514H168.15L169.38 47.4062C169.566 47.8368 169.99 48.1156 170.458 48.1156H171.921C172.323 48.1156 172.69 47.9156 172.907 47.5775C173.123 47.2405 173.155 46.8201 172.989 46.4553ZM162.477 41.3383L164.625 36.3139L166.786 41.3383H162.477Z" fill="#1D1D1B"/>
<path d="M68.558 45.3015C68.558 45.6247 68.4202 45.9404 68.1837 46.1627C67.5314 46.7794 66.7644 47.2757 65.9033 47.6387C64.8009 48.1007 63.5747 48.335 62.2572 48.335C60.63 48.335 59.1395 47.972 57.821 47.2526C57.1585 46.8915 56.5644 46.4591 56.0423 45.9562C55.5202 45.4533 55.0694 44.882 54.6933 44.2459C53.943 42.9746 53.5605 41.5206 53.5605 39.928C53.5605 38.3354 53.9467 36.8815 54.7062 35.6083C55.4648 34.3341 56.52 33.3248 57.8451 32.6034C59.1618 31.8858 60.6541 31.521 62.2811 31.521C63.5997 31.521 64.8213 31.7561 65.917 32.2202C66.7709 32.5813 67.5332 33.0775 68.1837 33.6915C68.422 33.9166 68.558 34.2313 68.558 34.5573C68.558 34.8832 68.4267 35.1861 68.1874 35.4101L67.3318 36.2186C66.8872 36.6371 66.2091 36.6492 65.7545 36.2472C64.8101 35.4065 63.718 34.9981 62.4124 34.9981C61.4458 34.9981 60.5717 35.212 59.8131 35.6305C59.0602 36.0472 58.4659 36.6343 58.0446 37.3741C57.6215 38.1158 57.4052 38.9751 57.4052 39.928C57.4052 40.8809 57.6215 41.7392 58.0446 42.4837C58.4659 43.2217 59.061 43.8088 59.8131 44.2255C60.5717 44.6459 61.4458 44.858 62.4124 44.858C63.7143 44.858 64.8064 44.4459 65.7498 43.5986C66.1981 43.195 66.8956 43.207 67.3355 43.6274L68.1947 44.4477C68.4304 44.6728 68.5598 44.9755 68.558 45.3015Z" fill="#27AE60"/>
<path d="M84.3426 32.9183V46.9396C84.3426 47.5867 83.8158 48.1146 83.1682 48.1146H81.7387C81.0929 48.1146 80.5661 47.5867 80.5661 46.9396V35.1304H73.5594V46.9405C73.5594 47.5878 73.0328 48.1156 72.385 48.1156H70.9557C70.3097 48.1156 69.7812 47.5878 69.7812 46.9405V32.9183C69.7812 32.2691 70.3097 31.7413 70.9557 31.7413H83.1682C83.8158 31.7423 84.3426 32.2691 84.3426 32.9183Z" fill="#27AE60"/>
<path d="M98.8605 45.9257V46.9396C98.8605 47.5867 98.3337 48.1146 97.6861 48.1146H87.5387C86.891 48.1146 86.3643 47.5867 86.3643 46.9396V32.9183C86.3643 32.2691 86.891 31.7413 87.5387 31.7413H97.3793C98.0271 31.7413 98.5537 32.2691 98.5537 32.9183V33.9322C98.5537 34.5814 98.0271 35.1092 97.3793 35.1092H90.185V38.1455H96.435C97.0808 38.1455 97.6094 38.6733 97.6094 39.3223V40.2928C97.6094 40.9419 97.0808 41.4697 96.435 41.4697H90.185V44.7487H97.6851C98.3337 44.7487 98.8605 45.2765 98.8605 45.9257Z" fill="#27AE60"/>
<path d="M116.682 45.9034V50.3287C116.682 50.9779 116.155 51.5057 115.508 51.5057H114.253C113.607 51.5057 113.078 50.9779 113.078 50.3287V48.1146H101.208C100.562 48.1146 100.033 47.5867 100.033 46.9396V32.9183C100.033 32.2691 100.562 31.7413 101.208 31.7413H102.637C103.285 31.7413 103.812 32.2691 103.812 32.9183V44.7265H110.598V32.9183C110.598 32.2691 111.125 31.7413 111.773 31.7413H113.222C113.87 31.7413 114.397 32.2691 114.397 32.9183V44.7265H115.508C116.155 44.7265 116.682 45.2543 116.682 45.9034Z" fill="#27AE60"/>
<path d="M143.499 32.9184V33.9527C143.499 34.6017 142.973 35.1295 142.325 35.1295H138.405V46.9397C138.405 47.5868 137.879 48.1147 137.231 48.1147H135.779C135.134 48.1147 134.607 47.5868 134.607 46.9397V35.1305H130.708C130.06 35.1305 129.533 34.6027 129.533 33.9536V32.9192C129.533 32.2702 130.06 31.7424 130.708 31.7424H142.325C142.973 31.7424 143.499 32.2692 143.499 32.9184Z" fill="#1D1D1B"/>
<path d="M127.768 38.0251H120.216C119.571 38.0251 119.043 38.5539 119.043 39.2002V40.6549C119.043 41.3041 119.57 41.8319 120.216 41.8319H127.768C128.277 41.8319 128.69 41.4189 128.69 40.9086V38.9483C128.69 38.4381 128.277 38.0251 127.768 38.0251Z" fill="#1D1D1B"/>
<path d="M157.712 34.5156C157.424 34.0665 157.073 33.6665 156.658 33.3201C156.242 32.9738 155.765 32.6812 155.23 32.4423C154.183 31.9766 152.946 31.7413 151.552 31.7413H145.92C145.272 31.7413 144.745 32.2691 144.745 32.9183V46.9396C144.745 47.5867 145.272 48.1146 145.92 48.1146H147.392C148.04 48.1146 148.567 47.5867 148.567 46.9396V43.669H151.553C152.947 43.669 154.184 43.4337 155.231 42.968C156.302 42.4902 157.14 41.7892 157.715 40.8818C158.29 39.9771 158.581 38.9095 158.581 37.7056C158.581 36.4861 158.29 35.4148 157.712 34.5156ZM154.737 37.7066C154.737 38.5437 154.48 39.1613 153.95 39.5983C153.397 40.0493 152.546 40.2807 151.422 40.2807H148.568V35.1304H151.422C152.545 35.1304 153.397 35.361 153.95 35.8147C154.479 36.249 154.737 36.8677 154.737 37.7066Z" fill="#1D1D1B"/>
<path d="M188.695 32.9183V46.9396C188.695 47.5867 188.167 48.1146 187.52 48.1146H186.047C185.399 48.1146 184.873 47.5867 184.873 46.9396V41.5124H177.888V46.9396C177.888 47.5867 177.362 48.1146 176.715 48.1146H175.241C174.594 48.1146 174.066 47.5867 174.066 46.9396V32.9183C174.066 32.2691 174.594 31.7413 175.241 31.7413H176.715C177.362 31.7413 177.888 32.2691 177.888 32.9183V38.102H184.873V32.9183C184.873 32.2691 185.399 31.7413 186.047 31.7413H187.52C188.167 31.7423 188.695 32.2691 188.695 32.9183Z" fill="#1D1D1B"/>
<path d="M204.647 45.3015C204.647 45.6247 204.51 45.9404 204.274 46.1627C203.621 46.7794 202.852 47.2757 201.992 47.6387C200.891 48.1007 199.664 48.335 198.346 48.335C196.719 48.335 195.229 47.972 193.91 47.2526C192.586 46.5312 191.533 45.5191 190.782 44.2459C190.032 42.9746 189.65 41.5206 189.65 39.928C189.65 38.3354 190.035 36.8815 190.795 35.6083C191.554 34.3369 192.61 33.3248 193.934 32.6034C195.25 31.8858 196.743 31.521 198.37 31.521C199.689 31.521 200.911 31.7561 202.007 32.2202C202.861 32.5813 203.622 33.0775 204.274 33.6915C204.511 33.9166 204.647 34.2313 204.647 34.5573C204.647 34.8832 204.516 35.1861 204.277 35.4101L203.422 36.2186C202.975 36.6371 202.298 36.6492 201.843 36.2472C200.899 35.4065 199.806 34.9981 198.502 34.9981C197.534 34.9981 196.661 35.212 195.902 35.6305C195.149 36.0472 194.555 36.6343 194.135 37.3741C193.711 38.1158 193.495 38.9751 193.495 39.928C193.495 40.8809 193.711 41.7392 194.135 42.4837C194.555 43.2217 195.151 43.8088 195.902 44.2255C196.661 44.6459 197.534 44.858 198.502 44.858C199.804 44.858 200.896 44.4459 201.84 43.5986C202.287 43.195 202.985 43.207 203.427 43.6274L204.284 44.4477C204.52 44.6728 204.649 44.9755 204.647 45.3015Z" fill="#1D1D1B"/>
<path d="M39.6304 28.8439L36.5979 30.0895C35.8559 30.394 35.7089 31.3673 36.3132 31.8941C42.2777 37.0889 44.4842 45.1746 41.7769 52.651C38.8053 60.8515 30.8497 65.7944 22.0061 64.9667C13.4933 64.1601 6.34247 57.1597 5.37222 48.6795C4.35026 39.5382 9.42766 31.2237 17.7547 28.4633C17.8064 28.4429 17.8888 28.4319 17.971 28.4319C18.2602 28.4319 18.6824 28.5356 19.0031 28.6078L19.2507 28.6699C19.746 28.7838 20.2513 28.9495 20.7882 29.1245C21.8822 29.4967 22.9966 29.8691 24.2145 29.8486C25.8444 29.8172 27.5889 29.5588 29.4359 29.0939L29.5293 29.0624C30.0042 28.9485 30.4883 28.8143 30.9734 28.6588L31.5104 28.493C32.0877 28.3171 32.656 28.141 33.2235 27.9652L34.1003 27.7068L43.6036 24.8937L42.7166 24.1075C39.4558 21.2119 36.1534 19.0193 32.6145 17.4173C29.6013 16.032 27.0012 15.4217 24.3909 15.5042C20.3771 15.6588 17.2095 17.5617 14.7018 21.3156L14.5882 21.4815C18.3545 20.4573 26.8876 19.0924 36.815 23.7353C36.815 23.7353 21.7389 20.8916 13.5977 24.5834C13.2161 24.7595 12.8446 24.9558 12.4834 25.1623C12.2874 25.2658 12.1017 25.3798 11.9159 25.503C3.74412 30.4153 -0.930403 39.7529 0.328095 49.2768C1.73165 59.9691 9.89334 68.2521 20.6459 69.9068C21.8019 70.0827 22.9467 70.1754 24.0925 70.1754C28.633 70.1754 33.0487 68.8308 36.8363 66.4113C40.6127 63.9916 43.7598 60.5061 45.7621 56.2356C50.0375 47.0794 47.9769 36.1074 40.7928 29.0596C40.4851 28.7642 40.0249 28.6827 39.6304 28.8439Z" fill="#27AE60"/>
<path d="M31.2526 55.9882L31.1602 57.6125C31.1602 57.6125 31.1492 57.6125 31.1371 57.6013C30.6547 57.2559 23.0327 51.7723 18.7786 48.1777C18.7324 48.1434 18.6871 48.097 18.6409 48.0627C17.5488 47.1294 16.4566 46.1616 15.5021 45.0561C13.2032 42.4291 12.6626 38.9271 14.019 35.9434C23.5262 38.6742 27.0899 47.9017 27.3201 48.5239C25.3889 39.653 18.1004 34.0424 15.3987 32.233L16.525 32.1636C19.1002 32.0136 22.8248 32.1405 25.4572 34.9748C27.2167 36.8871 28.6303 39.065 29.5385 41.2883C31.5169 46.0922 31.5288 51.1963 31.2526 55.9882Z" fill="#27AE60"/>
</svg>
